Coordinates
version=1
nRows=5
nColumns=63
inDegrees=yes

Units are S.I. units (second, meters, Newtons, ...)
If the header above contains a line with 'inDegrees', this indicates whether rotational values are in degrees (yes) or radians (no).

endheader
time	pelvis_tilt	pelvis_list	pelvis_rotation	pelvis_tx	pelvis_ty	pelvis_tz	hip_flexion_r	hip_adduction_r	hip_rotation_r	knee_angle_r	knee_angle_r_beta	ankle_angle_r	subtalar_angle_r	mtp_angle_r	hip_flexion_l	hip_adduction_l	hip_rotation_l	knee_angle_l	knee_angle_l_beta	ankle_angle_l	subtalar_angle_l	mtp_angle_l	L5_S1_Flex_Ext	L5_S1_Lat_Bending	L5_S1_axial_rotation	L4_L5_Flex_Ext	L4_L5_Lat_Bending	L4_L5_axial_rotation	L3_L4_Flex_Ext	L3_L4_Lat_Bending	L3_L4_axial_rotation	L2_L3_Flex_Ext	L2_L3_Lat_Bending	L2_L3_axial_rotation	L1_L2_Flex_Ext	L1_L2_Lat_Bending	L1_L2_axial_rotation	L1_T12_Flex_Ext	L1_T12_Lat_Bending	L1_T12_axial_rotation	Abs_r3	Abs_r2	Abs_r1	Abs_t1	Abs_t2	neck_flexion	neck_bending	neck_rotation	arm_flex_r	arm_add_r	arm_rot_r	elbow_flex_r	pro_sup_r	wrist_flex_r	wrist_dev_r	arm_flex_l	arm_add_l	arm_rot_l	elbow_flex_l	pro_sup_l	wrist_flex_l	wrist_dev_l
      0.00000000	     -1.80862302	     -4.39670944	     79.97072110	      0.11669740	      0.92720180	      0.46469463	      9.69253541	      3.66132486	     -2.74371942	      9.16936225	      0.16003556	     30.29507684	      6.16005946	      0.00000000	      5.15898069	     -2.05734551	     -6.69035753	      1.21768651	      0.02125264	     33.66484858	      2.46601288	      0.00000000	      0.57085018	      0.65555384	     -0.32280690	      1.06012586	      0.87188661	     -0.34298233	      0.93784975	      1.59391362	     -0.34298233	      0.65242467	      1.59391362	     -0.28245604	      0.53009147	      1.33680540	     -0.26228061	      0.32618379	      1.01545290	     -0.24210517	      4.07752572	      7.41575619	     -1.79535513	      0.00000000	      0.00000000	     27.88464363	      3.07818604	     15.55025882	     24.97768371	    -10.83922115	     88.50936208	     50.42838572	     18.59130534	      8.11351213	      7.25653801	     16.00864689	     -5.74846642	     71.85571455	     46.04306337	     59.38880942	     -3.03820643	    -14.14194314
      0.01666667	     -1.83542614	     -4.17358937	     81.03624408	      0.11569592	      0.92769700	      0.46234729	      8.00901260	      3.87642889	      4.89523590	      6.19767937	      0.10816991	     27.44964296	     -4.59470667	      0.00000000	      4.83584740	     -1.85717514	     -2.68889149	      1.02798095	      0.01794165	     32.98115393	     -1.01149761	      0.00000000	      0.56359539	      0.65805030	     -0.56371003	      1.04665299	      0.87520690	     -0.59894191	      0.92593086	      1.59998351	     -0.59894191	      0.64413317	      1.59998351	     -0.49324628	      0.52335467	      1.34189618	     -0.45801440	      0.32203840	      1.01931992	     -0.42278252	      4.02570548	      7.44399664	     -3.13518607	      0.00000000	      0.00000000	     27.87443215	      3.24812641	     17.21923919	     25.18196957	    -10.53982363	     88.85988776	     50.02287047	     19.82874533	      6.96463009	      6.40767124	     15.46701626	     -5.60205623	     69.32837241	     46.02055515	     59.96907773	     -1.28799198	    -12.48399297
      0.03333333	     -1.91439771	     -4.17497833	     81.12449352	      0.11514986	      0.92771059	      0.46170217	      7.97154574	      3.66011866	      4.95419154	      6.10138199	      0.10648920	     27.53035281	     -4.60131509	      0.00000000	      4.80471620	     -1.72059535	     -2.59254187	      1.00781822	      0.01758975	     33.04486179	     -0.96023599	      0.00000000	      0.57350204	      0.65928246	     -0.56312360	      1.06505064	      0.87684567	     -0.59831883	      0.94220650	      1.60297936	     -0.59831883	      0.65545548	      1.60297936	     -0.49273315	      0.53255399	      1.34440879	     -0.45753793	      0.32769907	      1.02122853	     -0.42234270	      4.09646772	      7.45793500	     -3.13192455	      0.00000000	      0.00000000	     27.85875273	      3.20032241	     17.26424050	     25.32444519	    -10.60223545	     88.80074358	     49.83473123	     19.87570866	      6.86895861	      6.35999374	     15.66389583	     -5.43178992	     69.17256727	     45.99369046	     59.91999087	     -1.26978380	    -12.43740812
      0.05000000	     -2.08435217	     -3.68940432	     82.17601078	      0.11393318	      0.92853112	      0.45941717	      6.23683745	      3.35443173	     10.13275948	      3.72865558	      0.06507732	     25.23061734	    -12.29801721	      0.00000000	      4.25748091	     -1.35380846	      0.18670332	      0.94600324	      0.01651087	     32.52699962	     -3.13213479	      0.00000000	      0.54743981	      0.62917991	     -0.74018578	      1.01665048	      0.83680928	     -0.78644739	      0.89938887	      1.52978804	     -0.78644739	      0.62566896	      1.52978804	     -0.64766256	      0.50835261	      1.28302368	     -0.60140095	      0.31280711	      0.97459968	     -0.55513934	      3.91030785	      7.11740900	     -4.11669127	      0.00000000	      0.00000000	     27.79262881	      2.86067297	     17.58528352	     25.06666724	    -10.47651338	     87.96463488	     49.29286374	     28.86959545	      6.72221065	      4.25891843	     15.42287793	     -5.38740028	     68.15994620	     45.94243230	     58.75634843	      0.36897083	    -11.17200114
      0.06666667	     -2.17665489	     -3.37471181	     82.41221557	      0.11349386	      0.92904577	      0.45841796	      5.64378108	      3.13527005	     11.09713290	      3.24524347	      0.05664018	     25.03700418	    -13.58162022	      0.00000000	      3.88531084	     -1.16833327	      0.53269118	      0.95497397	      0.01666744	     32.48696733	     -3.34803633	      0.00000000	      0.52748653	      0.60938150	     -0.73912781	      0.97959523	      0.81047739	     -0.78532330	      0.86660762	      1.48165017	     -0.78532330	      0.60286435	      1.48165017	     -0.64673683	      0.48982399	      1.24265075	     -0.60054135	      0.30140580	      0.94393194	     -0.55434586	      3.76778352	      6.89344538	     -4.11080714	      0.00000000	      0.00000000	     27.70723044	      2.60639200	     16.93507794	     24.94296154	    -10.56067648	     87.53449941	     49.11563449	     32.73380580	      6.82726033	      3.25863544	     15.67760669	     -5.36956557	     68.63870662	     45.90101202	     57.92459370	      0.71320477	    -11.13315893
